<?xml version="1.0" encoding="utf-8"?>
<!-- Generator: Adobe Illustrator 23.0.2, SVG Export Plug-In . SVG Version: 6.00 Build 0)  -->
<svg version="1.1" id="Layer_1" xmlns="http://www.w3.org/2000/svg" xmlns:xlink="http://www.w3.org/1999/xlink" x="0px" y="0px"
	 viewBox="0 0 358.7 499.5" style="enable-background:new 0 0 358.7 499.5;" xml:space="preserve">
<style type="text/css">
	.st0{fill:#030303;}
</style>
<path class="st0" d="M329.5,66.2h-108V41.3C221.5,18.5,203,0,180.2,0c-22.8,0-41.3,18.5-41.3,41.3v24.9H29.2
	C13.1,66.2,0,79.3,0,95.4v374.9c0,16.1,13.1,29.2,29.2,29.2h300.4c16.1,0,29.2-13.1,29.2-29.2V95.4
	C358.7,79.3,345.6,66.2,329.5,66.2z M180.2,23.7c10.3,0,18.6,8.3,18.6,18.6s-8.3,18.6-18.6,18.6c-10.3,0-18.6-8.3-18.6-18.6
	S169.9,23.7,180.2,23.7z M337.6,470.3c0,4.5-3.6,8.1-8.1,8.1H29.2c-4.5,0-8.1-3.6-8.1-8.1V95.4c0-4.5,3.6-8.1,8.1-8.1h109.7v18.4
	h82.7V87.3h108c4.5,0,8.1,3.6,8.1,8.1V470.3z M278.6,204.1c3.9,4.3,3.5,11-0.8,14.9L127.5,353.8l-47.4-52.2
	c-3.9-4.3-3.6-11,0.7-14.9c4.3-3.9,11-3.6,14.9,0.7l33.3,36.7l134.7-120.8C268.1,199.4,274.7,199.8,278.6,204.1z"/>
</svg>
