<?xml version="1.0" encoding="utf-8"?>
<!-- Generator: Adobe Illustrator 23.0.2, SVG Export Plug-In . SVG Version: 6.00 Build 0)  -->
<svg version="1.1" id="Layer_1" xmlns="http://www.w3.org/2000/svg" xmlns:xlink="http://www.w3.org/1999/xlink" x="0px" y="0px"
	 viewBox="0 0 358.7 499.5" style="enable-background:new 0 0 358.7 499.5;" xml:space="preserve">
<style type="text/css">
	.st0{fill:#030303;}
</style>
<path class="st0" d="M319.6,74.1H220V50.6c0-23.7-19.2-42.9-42.9-42.9c-23.7,0-42.9,19.2-42.9,42.9v23.4H39.1
	c-18.6,0-33.8,15.2-33.8,33.8V458c0,18.6,15.2,33.8,33.8,33.8h280.5c18.6,0,33.8-15.2,33.8-33.8V107.9
	C353.4,89.2,338.3,74.1,319.6,74.1z M177.1,32.3c10.7,0,19.3,8.6,19.3,19.3s-8.6,19.3-19.3,19.3c-10.7,0-19.3-8.6-19.3-19.3
	S166.5,32.3,177.1,32.3z M320.6,458c0,0.5-0.4,1-1,1H39.1c-0.5,0-1-0.4-1-1V107.9c0-0.5,0.4-1,1-1h95.1v10.6H220v-10.6h99.6
	c0.5,0,1,0.4,1,1V458z M275.4,205c6,6.7,5.5,17.1-1.3,23.2L128.9,358.4l-48.6-53.6c-6.1-6.7-5.6-17.1,1.1-23.2
	c6.7-6.1,17.1-5.6,23.2,1.1l26.7,29.5l120.9-108.4C258.9,197.7,269.3,198.3,275.4,205z"/>
</svg>
